<svg xmlns="http://www.w3.org/2000/svg" width="2472" height="2472" viewBox="0 0 654 654"><path d="M354 132c8 5 13 13 7 20l-9 13 158 163c-5 15-11 26-18 34-12 11-19 10-38 8l-184-44 107 110 28-17s13 14-5 32l-49 52c-4-2-10-10-6-17l10-17-141-146-20 17c-8-6-14-19-4-30l51-56 188 42-99-102-22 16c-9-6-9-18-2-26z" fill-rule="evenodd" fill="#2684ff"/><path d="M635 309L354 27 327 0 115 212l-97 97a26 26 0 000 36l194 194 115 115 212-212 3-3 93-94c11-10 11-26 0-36zM325 602L117 326 328 56l277 274z" fill="#2684ff"/><path d="M108 79a56 56 0 010-79L36 73l39 39z" fill="url(#a)" transform="translate(11) scale(2.91783)"/><path d="M142 112l-34 33a56 56 0 010 79l73-73z" fill="url(#b)" transform="translate(11) scale(2.91783)"/></svg>